PathFileType	4	(X/Y/Z)	RBDS026\RBDS026runT45.trc
DataRate	CameraRate	NumFrames	NumMarkers	Units	OrigDataRate	OrigDataStartFrame	OrigNumFrames
150.000000	150.000000	5	33	mm	150.000000	3937	4500
Frame#	Time	L.ASIS			L.Heel.Bottom			L.Heel.Lateral			L.Heel.Top			L.Iliac.Crest			L.MT1			L.MT5			L.PSIS			L.Shank.Bottom.Lateral			L.Shank.Bottom.Medial			L.Shank.Top.Lateral			L.Shank.Top.Medial			L.Thigh.Bottom.Lateral			L.Thigh.Bottom.Medial			L.Thigh.Top.Lateral			L.Thigh.Top.Medial			R.ASIS			R.ASY			R.Heel.Bottom			R.Heel.Lateral			R.Heel.Top			R.Iliac.Crest			R.MT1			R.MT5			R.PSIS			R.Shank.Bottom.Lateral			R.Shank.Bottom.Medial			R.Shank.Top.Lateral			R.Shank.Top.Medial			R.Thigh.Bottom.Lateral			R.Thigh.Bottom.Medial			R.Thigh.Top.Lateral			R.Thigh.Top.Medial			
		X1	Y1	Z1	X2	Y2	Z2	X3	Y3	Z3	X4	Y4	Z4	X5	Y5	Z5	X6	Y6	Z6	X7	Y7	Z7	X8	Y8	Z8	X9	Y9	Z9	X10	Y10	Z10	X11	Y11	Z11	X12	Y12	Z12	X13	Y13	Z13	X14	Y14	Z14	X15	Y15	Z15	X16	Y16	Z16	X17	Y17	Z17	X18	Y18	Z18	X19	Y19	Z19	X20	Y20	Z20	X21	Y21	Z21	X22	Y22	Z22	X23	Y23	Z23	X24	Y24	Z24	X25	Y25	Z25	X26	Y26	Z26	X27	Y27	Z27	X28	Y28	Z28	X29	Y29	Z29	X30	Y30	Z30	X31	Y31	Z31	X32	Y32	Z32	X33	Y33	Z33	

3938	26.24666666666667	2276.008649358208	1070.895975868725	918.1343613896777	2217.955826468948	185.5046195818329	996.4599650403114	2249.346012662059	193.7491296781753	944.0741805329101	2241.437778819206	227.4764274420762	992.9670984442671	2192.641501634285	1165.591825420084	863.6497387442515	2436.96091360325	124.8562912376116	999.8404182583796	2382.898317704237	129.4018332361583	899.6348286166289	2110.202772943804	1133.9248475694	973.2776136762114	2328.646715600547	298.5868358949793	916.6494602811449	2288.957857993307	314.707233628647	944.3065284431897	2346.381453174596	374.0148303727299	892.2823901304848	2305.739921968741	394.3327974467069	920.2009389922805	2381.310086109098	734.8808013095236	857.830825644847	2323.629928177661	697.4689299613435	881.5222270439929	2315.911969396715	819.8291014475097	833.8422242331229	2261.676225461905	785.1099698019343	859.6949138550657	2259.901154169928	1038.69139720516	1138.111603795971	1608.765395356918	205.8775343578835	1031.297352331126	1536.83620009958	365.0365335044561	947.8262021602858	1538.095518515841	347.5588878664911	1004.097665143532	1578.323964264383	368.8353939223725	969.2437636075649	2233.266714558486	1124.156269851338	1178.791115982529	1600.70814864709	148.6109359355645	981.9677951170147	1537.529763834979	189.9875457842706	1062.129533015403	2112.670747016614	1126.530772645546	1076.756079223652	1634.066556899252	367.0608435112998	1064.243306393695	1620.175868845073	394.2994736467485	1018.227478032135	1677.955795734381	431.8638313769434	1087.041318780048	1663.323841024961	457.4460594270855	1042.228984468223	1973.242485613971	683.4735706559404	1162.915193404155	1926.892295553259	715.246229522873	1118.813378302411	2022.78066018655	780.9207409638698	1179.741174807192	1977.377045733828	810.7299460256202	1138.29372232553	
3939	26.25333333333333	2276.378639414324	1071.868242339386	919.5918331149028	2244.404426223348	167.6337720020932	1000.364477343853	2274.908591411729	177.4626443152533	947.6472626612983	2264.773965831902	211.1038573534901	996.1293199160743	2194.58936488019	1165.761447206323	863.1973492427531	2467.175739129957	123.0957229149407	1003.502197669187	2412.646521551191	122.4265934483808	903.466818572853	2111.056645089015	1135.807471974806	972.3881835256243	2346.187013651301	287.8029837453996	918.7123092452892	2305.874380406552	301.5718769058174	946.6289610246058	2358.744821022444	363.8797688020565	893.4918164560152	2317.163556856989	381.7490205625357	921.6010258047023	2377.019785985905	731.4655369693534	857.3179428892705	2318.826910259467	694.9378784094891	880.980002553466	2313.00968567464	817.6066049184514	833.8329282457097	2258.321180300185	783.8956729994525	860.0557253394318	2259.303339793191	1041.808790614688	1139.601485223521	1594.116355854657	223.298761910425	1028.811837399172	1527.367875741309	385.2740687155478	946.4138192704409	1528.313696732205	367.5259240609959	1002.656221356966	1569.042889042177	387.4353088598336	967.3413307295498	2230.183727141058	1127.759708880064	1179.056507658407	1583.791356846527	166.6310693825371	979.5287801709168	1522.628857119735	209.8697648309366	1060.251693493425	2112.613526049585	1129.005049816173	1075.976027841956	1625.521883073204	382.4016795289448	1062.417283748619	1612.954966511117	410.8665560014306	1016.782226570447	1672.43966787868	444.7371625714825	1085.823119366718	1659.132904928221	471.5140875261517	1041.308773219042	1974.561038102777	684.5994413424746	1163.578139804745	1928.299249688264	715.8201431290624	1119.02350512709	2023.437701493571	782.416445157919	1180.328904692379	1977.925927133186	811.7679525215871	1138.647742479288	
3940	26.26	2276.515657723823	1072.38995618943	920.957565264409	2270.569900383997	151.1890276700176	1003.977394318093	2300.208779010277	162.407992973978	950.9731976734591	2287.733900348913	195.872139802151	998.9400125784231	2196.275175535371	1165.264422478539	862.6401000606969	2495.754485983702	123.016140280674	1007.203020029102	2441.451047932934	116.8972778143956	907.3268848831663	2111.501505746925	1136.775300122333	971.3737995996955	2363.046777068964	277.7350625844782	920.5553093217945	2322.206240779768	289.1040869271566	948.6643952632214	2370.444762832881	354.087346155405	894.5346389342906	2328.016816635225	369.4454329294657	922.7171991674149	2371.896849349707	727.0777341193311	856.7176027816348	2313.253524938605	691.6583624913277	880.7356542825306	2309.391842877145	814.439980893571	833.7381278323448	2254.304276153278	781.9023559701563	860.5793848390014	2258.624883482622	1044.687594702551	1141.082000250294	1580.823000128633	241.2299486649255	1025.550709181758	1518.557458924893	405.8715071855115	945.8544326466549	1519.576917256928	387.5378497093425	1001.877394713916	1560.404687766545	406.3946875389142	965.9941362020106	2227.027388999934	1130.885540121872	1179.234856669757	1568.066478505828	185.6418734061488	975.8764063851019	1509.456888109556	229.9215667612649	1057.88919426171	2112.177873560936	1130.721659939512	1075.043681983665	1618.134544693054	397.7542218840764	1060.711905527628	1606.753341390181	427.6779408549316	1015.746554676776	1668.095696776166	457.31643575747	1084.901227659384	1655.95973630562	485.515795819766	1040.982793155889	1976.659194827234	684.8558859252093	1164.383363579783	1930.323566466127	715.5024694941662	1119.530113996325	2024.732656880126	783.0866081483121	1181.10836472255	1978.964529289038	811.9658756722727	1139.345147087312	
3941	26.26666666666667	2276.440937510674	1072.487155745291	922.2096071493099	2296.130020982856	136.2597541314227	1007.270871364968	2324.948774552908	148.6834489259994	954.0279843670487	2310.023920515535	181.8704994058569	1001.374234375998	2197.63823550886	1164.231891833652	862.0645785187733	2522.404104439563	124.5809870666434	1010.865620379008	2469.023868664816	112.8378958055692	911.1642549003597	2111.560402021918	1136.837362488355	970.2903735792746	2379.000226460181	268.5013809887947	922.1678169696357	2337.737218628085	277.4278448512669	950.4341560948454	2381.30446210266	344.7927455153914	895.435057750703	2338.140492378505	357.5885826350068	923.6150722261707	2366.020675676881	721.8874162935422	856.0973509473773	2306.993530010701	687.778452863098	880.819874341326	2305.132209035832	810.485392785939	833.6099908436012	2249.703716380275	779.2609012923058	861.2741099749061	2257.929139274492	1047.22504888353	1142.525488891184	1568.88336398894	259.4792550387722	1021.68080336831	1510.939088428919	426.8550213259927	946.0469259718295	1512.193049933269	407.5884217028569	1001.678449627279	1552.918847099483	425.653279409715	965.227742077235	2223.969467172535	1133.489860930064	1179.291815939345	1553.604122097913	205.4429912809794	971.1877668019958	1497.852713377889	250.0519133045497	1055.010437008598	2111.429806183723	1131.636113347179	1073.99902616828	1612.060570964938	412.9828522761342	1059.222090815778	1601.760762080151	444.5456052221655	1015.177392970482	1664.989842035065	469.5136954046856	1084.339728887506	1653.907489985612	499.3163030040925	1041.276104757101	1979.446408833948	684.3232308918898	1165.309298566096	1932.908685736346	714.3993859584699	1120.289083456368	2026.617605351672	782.9820184335415	1182.051661235175	1980.49083470336	811.3943937960619	1140.323716344334	
3942	26.27333333333333	2276.166713272222	1072.187882616928	923.3201014768949	2320.723725216367	122.8895444764734	1010.226653967017	2348.783361460284	136.3445418627781	956.7918191749663	2331.320549474478	169.1511210424679	1003.420436423297	2198.617468182229	1162.779058059837	861.5558408674124	2546.843268306609	127.6639108946991	1014.386648635904	2495.045475541624	110.1942766120397	914.9066381388694	2111.258667571851	1136.029569522017	969.206927198756	2393.803263548125	260.1808202392452	923.5430456352382	2352.240358101832	266.6464341163742	951.9687253270155	2391.1382735323	336.1215304627524	896.2176067060526	2347.375400754299	346.3335912072945	924.3717507218287	2359.507929080657	716.0949488205118	855.5207156934944	2300.16280456	683.4626326366398	881.2307593744364	2300.336300594376	805.9311326372274	833.5018569296556	2244.625149789314	776.1257403562299	862.1351607960618	2257.268169913606	1049.32768748118	1143.905248483531	1558.275358715073	277.887920730091	1017.407099025794	1505.027913295485	448.1758720197854	946.8243818058689	1506.444627690376	427.6536358004901	1001.922015200337	1547.059884133735	445.099310190266	965.0122079604985	2221.117466116029	1135.545944884477	1179.21285954999	1540.474279008525	225.836685471619	965.7189870516775	1487.647643467306	270.2363100848366	1051.627231713106	2110.433037662825	1131.721709565886	1072.897182820411	1607.420374050475	427.9627244551062	1058.012910224875	1598.146967629105	461.2786550735815	1015.086185231306	1663.16636404348	481.2562610102499	1084.169320791682	1653.071968557882	512.7832505458996	1042.165848141329	1982.837278043876	683.0757141222825	1166.336151007696	1936.005935929222	712.5973240376788	1121.249420658622	2029.037036379514	782.1588583941831	1183.123555333309	1982.493156492993	810.1159215999389	1141.508919023015	
